<svg width="350" height="469" viewBox="0 0 350 469" fill="none" xmlns="http://www.w3.org/2000/svg">
<circle cx="175" cy="175" r="175" fill="#336AB1"/>
<ellipse cx="102.5" cy="442" rx="63.5" ry="27" fill="white" fill-opacity="0.53"/>
<ellipse cx="264.5" cy="437" rx="63.5" ry="27" fill="white" fill-opacity="0.53"/>
<path d="M108.06 291.274C108.06 291.274 94.5846 345.262 87.4 354.289C80.2154 363.317 67.5466 360.513 69.0394 354.713C70.5322 348.913 73.7253 287.919 73.7253 287.919L108.06 291.274Z" fill="#FF8C65"/>
<path d="M87.9828 349.56C90.3777 351.957 77.0063 413.15 76.711 423.935C76.4396 432.763 78.4033 432.211 78.4033 432.211C78.4033 432.211 67.1475 432.843 66.7164 431.74C66.2853 430.638 65.9181 424.151 65.9181 419.933C65.9181 415.715 63.5951 381.882 65.2635 371.497C66.932 361.112 70.0533 350.391 73.2464 346.556C76.0085 343.161 87.5757 343.952 87.9828 349.56Z" fill="#FF8C65"/>
<path d="M64.952 430.142C65.423 428.792 66.0457 427.482 66.5965 427.882C67.5225 428.537 68.1931 429.559 69.1031 430.278C71.3224 431.988 75.0104 431.405 75.8965 428.553C75.9369 428.371 76.0099 428.197 76.1121 428.041C76.1653 427.966 76.241 427.909 76.3284 427.878C76.4158 427.848 76.5106 427.847 76.599 427.874C76.7372 427.977 76.8381 428.123 76.8864 428.289C77.4772 429.591 79.401 430.43 80.5426 431.157C82.9853 432.699 85.5079 434.121 88.0226 435.543C88.0226 435.543 90.4174 436.493 90.7527 437.005C91.0402 437.811 91.1544 438.668 91.088 439.521C89.2798 440.625 87.2478 441.31 85.1407 441.526C81.4174 441.684 77.695 441.192 74.1403 440.072C72.7114 439.513 71.2505 439.05 69.7976 438.562C68.0414 437.971 64.8402 437.652 64.2096 435.607C63.6269 433.809 64.3852 431.78 64.952 430.142Z" fill="#381905"/>
<path d="M97.1309 314.353C101.921 332.168 108.483 357.013 108.762 360.784C109.201 366.743 122.109 365.401 126.069 354.569C128.224 348.673 127.953 329.564 127.25 313.363L97.1309 314.353Z" fill="#FF8C65"/>
<path d="M125.87 347.363C127.889 348.577 127.777 356.286 127.985 358.22C128.839 365.873 129.414 373.558 130.005 381.227C130.627 389.328 131.21 397.428 131.897 405.521C132.591 413.741 132.918 422.002 133.589 430.166C133.733 431.916 133.405 433.921 131.992 434.959C131.093 435.522 130.029 435.762 128.975 435.638C127.982 435.627 127.025 435.268 126.269 434.624C125.367 433.737 125.183 432.363 125.007 431.109C124.321 426.228 122.676 421.674 121.216 417.001C120.17 413.645 119.108 410.298 118.062 406.951C115.516 398.739 112.969 390.502 110.974 382.13C110.308 379.567 109.818 376.962 109.505 374.333C108.475 363.852 108.77 352.707 110.87 348.194C112.73 344.199 124.089 342.026 125.87 347.363Z" fill="#FF8C65"/>
<path d="M122.74 432.107C122.844 430.677 123.123 429.255 123.754 429.495C124.816 429.903 125.726 430.717 126.787 431.165C129.182 432.163 132.136 430.653 133.82 428.928C134.898 427.809 136.215 428.497 137.46 428.888C138.706 429.279 140.087 429.687 141.404 430.062C143.07 430.542 144.741 431.002 146.417 431.444C146.417 431.444 148.972 431.756 149.427 432.163C149.909 432.869 150.236 433.67 150.385 434.512C148.922 436.043 147.131 437.223 145.148 437.963C141.585 439.065 137.857 439.535 134.132 439.353C132.615 439.177 131.082 439.098 129.557 438.994C127.705 438.874 124.528 439.377 123.371 437.556C122.397 436.022 122.604 433.809 122.74 432.107Z" fill="#381905"/>
<path d="M89.0524 191.471C85.0501 192.078 81.3511 193.964 78.5071 196.847C82.1526 199.269 84.9452 202.776 86.49 206.873C88.4058 199.507 93.0838 190.776 89.0524 191.471Z" fill="#CCDADB"/>
<path d="M172.801 248.598C171.26 248.295 143.791 245.347 130.42 242.695C126.899 242 123.81 245.347 123.57 248.934C123.513 249.814 123.63 250.697 123.916 251.531C124.201 252.365 124.649 253.135 125.233 253.795C125.817 254.455 126.526 254.993 127.319 255.378C128.112 255.762 128.973 255.986 129.853 256.036L171.364 256.34L172.801 248.598Z" fill="#FF8C65"/>
<path d="M109.744 197.007C115.093 196.752 118.294 203.278 120.377 207.273C126.708 219.448 130.22 233.005 135.88 245.515C136.263 246.36 136.467 247.276 136.477 248.204C136.487 249.132 136.303 250.052 135.938 250.905C135.573 251.758 135.034 252.525 134.356 253.159C133.678 253.792 132.876 254.277 132 254.582C130.407 255.09 128.684 255 127.153 254.328C125.622 253.656 124.388 252.448 123.682 250.931C120.489 244.333 117.112 237.79 113.967 231.151C112.331 227.7 110.774 224.233 109.289 220.71C107.397 216.164 105.753 211.579 105.489 206.618C105.338 203.798 105.641 197.207 109.744 197.007Z" fill="#FF8C65"/>
<path d="M106.423 192.869C119.387 194.578 122.541 201.656 137.413 242.646C137.413 242.646 147.91 243.445 148.796 244.476C149.682 245.506 148.477 257.098 147.511 257.785C146.545 258.472 130.699 258.744 127.075 256.747C123.451 254.749 113.169 226.046 113.169 226.046" fill="#CCDADB"/>
<path d="M135.417 244.029C134.253 245.913 132.942 247.703 131.498 249.381C133.024 248.571 134.367 247.453 135.441 246.098" stroke="#381905" stroke-width="0.9" stroke-linecap="round" stroke-linejoin="round"/>
<path d="M177.766 266.11C179.618 266.645 180.161 265.375 180.52 265.582C180.88 265.79 181.454 266.996 182.372 267.004H182.5C183.458 266.892 184.161 265.638 184.376 265.934C184.539 266.085 184.735 266.196 184.949 266.257C185.162 266.318 185.387 266.328 185.606 266.285C186.227 266.031 186.812 265.695 187.346 265.287C188.144 264.36 187.282 264.025 187.553 263.689C187.825 263.353 188.95 262.547 188.815 261.708C186.596 258.81 184.102 256.134 181.367 253.719C182.963 253.176 184.049 252.217 184.153 251.043C184.328 249.046 181.43 249.445 177.918 249.173C176.417 249.054 175.06 248.854 173.974 248.798C172.761 248.431 171.699 248.447 170.925 249.086C167.173 252.169 164.395 253.2 171.172 261.157C172.938 263.317 175.201 265.016 177.766 266.11V266.11Z" fill="#FF8B6A"/>
<path d="M187.537 264.009L183.178 259.191" stroke="#381905" stroke-width="1.39" stroke-miterlimit="10"/>
<path d="M184.376 265.942L180.161 260.557" stroke="#381905" stroke-width="1.39" stroke-miterlimit="10"/>
<path d="M180.52 265.583L177.974 262.083" stroke="#381905" stroke-width="1.39" stroke-miterlimit="10"/>
<path d="M117.44 210.532L121.998 284.667C122.533 290.196 114.542 295.388 103.797 296.427C101.091 296.666 98.3686 296.666 95.6623 296.427C85.0291 295.54 76.2161 285.778 78.6828 275.392C82.1553 260.829 62.8687 192.11 92.8763 190.896C93.1238 190.88 117.096 186.518 117.44 210.532Z" fill="#CCDADB"/>
<path d="M80.9737 330.586C89.4356 331.721 111.141 330.187 128.264 326.416C128.692 326.32 129.071 326.072 129.33 325.718C129.59 325.364 129.713 324.928 129.677 324.491C126.947 288.781 123.842 286.497 121.016 263.657C114.63 264.791 85.8912 263.657 82.243 263.569C70.9712 274.274 68.1692 283.373 67.778 289.82C67.2911 297.809 70.3246 305.166 69.2788 320.976C69.1192 323.333 68.9036 325.386 68.7041 327.007C68.6453 327.465 68.764 327.928 69.0357 328.301C69.3074 328.674 69.7114 328.929 70.1649 329.013C73.7412 329.7 77.3575 330.107 80.9737 330.586Z" fill="#3C3E55"/>
<path d="M68.3289 251.267C68.3003 252.981 68.895 254.646 70.0023 255.954C71.1095 257.262 72.6539 258.123 74.3479 258.377C75.2897 258.512 76.2492 258.451 77.1662 258.197C78.0832 257.943 78.9378 257.502 79.6763 256.902C80.4148 256.302 81.0212 255.555 81.4574 254.709C81.8937 253.863 82.1503 252.936 82.2111 251.986C82.4825 245.722 85.5719 218.832 85.4042 211.65C85.0769 191.902 68.2331 189.066 68.3289 251.267Z" fill="#FF8B6A"/>
<path d="M84.4542 297.657C84.4542 296.059 84.4542 267.012 82.3308 253.719C82.0416 251.953 81.0957 250.363 79.6831 249.266C78.2706 248.17 76.4958 247.649 74.7151 247.807V247.807C73.8187 247.889 72.948 248.151 72.1558 248.578C71.3635 249.006 70.6662 249.59 70.1058 250.295C69.5454 251 69.1337 251.811 68.8955 252.68C68.6573 253.548 68.5976 254.456 68.72 255.349L76.3516 297.521L84.4542 297.657Z" fill="#FF8B6A"/>
<path d="M78.4833 196.847C70.4206 205.171 67.8022 222.611 67.8421 251.266C67.8516 252.08 67.9834 252.888 68.2333 253.663C68.1654 254.242 68.1654 254.826 68.2333 255.405L71.0353 276.279C75.6548 276.458 80.2801 276.134 84.8297 275.313C84.5343 270.975 83.289 256.771 82.7861 253.615C82.741 253.323 82.6743 253.035 82.5865 252.752C82.6319 252.488 82.6613 252.221 82.6743 251.953C82.7781 249.557 83.297 244.132 83.9037 237.845C84.8776 227.62 85.9872 216.028 85.9074 211.586C85.9277 209.967 86.153 208.356 86.5779 206.793C84.9869 202.711 82.1556 199.233 78.4833 196.847V196.847Z" fill="#CCDADB"/>
<path d="M81.7399 310.695C83.2806 311.861 84.2864 310.887 84.502 311.19C84.7175 311.494 84.8772 312.844 85.7313 313.179L85.8511 313.235C86.7851 313.459 87.8867 312.548 87.9825 312.9C88.0778 313.104 88.2201 313.283 88.3977 313.422C88.5752 313.561 88.7831 313.655 89.0043 313.699C89.6779 313.678 90.346 313.571 90.9921 313.379C92.0458 312.796 91.3752 312.181 91.7903 311.941C92.2055 311.701 93.5067 311.366 93.6743 310.535C92.6239 307.03 91.2363 303.635 89.5312 300.397C91.2076 300.461 92.5647 299.958 93.0836 298.895C93.9617 297.098 91.1118 296.427 87.9266 294.901C86.5616 294.254 85.3721 293.583 84.3743 293.144C83.9881 292.774 83.5153 292.507 82.9993 292.367C82.4832 292.227 81.9404 292.22 81.4206 292.345C76.8145 293.886 73.8528 293.855 77.3573 303.713C78.2312 306.361 79.7352 308.757 81.7399 310.695V310.695Z" fill="#FF8B6A"/>
<path d="M91.6228 312.228L89.2679 306.173" stroke="#381905" stroke-width="1.39" stroke-miterlimit="10"/>
<path d="M87.9829 312.899L85.9632 306.373" stroke="#381905" stroke-width="1.39" stroke-miterlimit="10"/>
<path d="M84.5021 311.19L83.3765 307.012" stroke="#381905" stroke-width="1.39" stroke-miterlimit="10"/>
<path d="M78.6666 199.3C84.0231 200.578 85.8512 207.512 85.4041 213.879C84.9571 220.246 83.0093 255.021 83.0093 255.021L84.8693 275.329" stroke="#381905" stroke-width="0.9" stroke-linecap="round" stroke-linejoin="round"/>
<path d="M113.975 203.678C113.762 206.781 114.236 209.894 115.362 212.793C116.488 215.693 118.238 218.308 120.489 220.454C122.341 222.196 124.584 223.705 125.566 226.046C126.604 228.539 125.941 231.471 124.504 233.755C123.067 236.04 120.96 237.79 118.877 239.499L120.824 261.229" stroke="#381905" stroke-width="0.8" stroke-linecap="round" stroke-linejoin="round"/>
<path d="M110.479 157C110.479 157 117.24 160.674 115.404 167.936C115.404 167.936 111.748 171.419 108.627 166.099C105.505 160.778 110.479 157 110.479 157Z" fill="#381905"/>
<path d="M97.562 156.097C97.562 156.097 105.928 140.647 88.4616 141.006C70.995 141.366 77.8683 166.45 92.7564 164.245" fill="#381905"/>
<path d="M103.493 196.256C104.843 199.324 104.962 209.733 104.962 209.733C104.962 209.733 90.2898 198.485 90.2578 196.448C90.2259 194.411 93.1716 192.709 96.8277 192.661C100.484 192.613 102.671 194.387 103.493 196.256Z" fill="#FF8B6A"/>
<path d="M99.4941 194.243L92.565 194.818L91.1919 178.29L98.3526 180.423L99.4941 194.243Z" fill="#FF8B6A"/>
<path d="M99.3663 192.621L99.3024 180.311L91.8704 178.713C93.0359 183.29 95.7261 189.737 99.3663 192.621Z" fill="#381905"/>
<path d="M91.1757 179.089C91.1757 179.089 91.8383 180.183 92.9719 181.717C96.1012 185.959 102.503 190.504 108.666 187.884C117.064 184.281 116.426 163.119 112.785 159.316C104.332 150.545 86.5058 158.022 91.1757 179.089Z" fill="#FF8B6A"/>
<path d="M87.3762 178.002C89.9547 178.801 91.4395 178.234 92.1659 177.866C92.2574 177.827 92.3433 177.776 92.4214 177.714C93.4991 176.836 91.0643 172.681 92.7806 170.972C93.4432 170.317 94.0978 170.788 95.1755 170.261C97.7619 168.967 96.1654 164.757 98.2808 161.905C101.059 158.158 107.445 160.451 108.563 157.599C109.193 156.001 107.764 153.604 106.072 152.422C101.634 149.41 93.6747 153.788 89.4917 157.463C87.48 159.22 80.8382 165.108 82.5625 171.699C83.3608 174.974 85.9473 177.051 87.3762 178.002Z" fill="#381905"/>
<path d="M106.878 155.601C106.778 155.353 106.732 155.087 106.743 154.819C106.754 154.552 106.822 154.29 106.942 154.051C108.539 152.566 117.998 160.506 115.404 167.936C115.595 162.695 114.174 160.41 112.761 159.316C110.71 157.726 107.565 157.766 106.878 155.601Z" fill="#381905"/>
<path d="M108.57 171.627C108.57 171.627 108.227 174.479 108.818 174.647C109.409 174.814 110.662 174.207 110.758 174.487C110.854 174.767 110.071 175.781 109.073 176.005" stroke="#381905" stroke-width="0.9" stroke-linecap="round" stroke-linejoin="round"/>
<path d="M103.422 168.967C103.509 169.191 102.623 169.398 101.554 169.806C100.484 170.213 99.6935 170.644 99.6057 170.429C99.5179 170.213 100.125 169.214 101.202 168.831C101.556 168.672 101.942 168.602 102.329 168.626C102.715 168.649 103.09 168.766 103.422 168.967V168.967Z" fill="#381905"/>
<path d="M112.043 169.782C111.995 170.013 112.913 170.077 114.023 170.293C115.132 170.509 116.003 170.82 116.043 170.588C116.082 170.357 115.332 169.478 114.23 169.254C113.851 169.156 113.452 169.153 113.071 169.245C112.69 169.337 112.337 169.521 112.043 169.782V169.782Z" fill="#381905"/>
<path d="M92.5807 175.613C93.4508 177.506 92.9878 179.607 91.5509 180.231C90.114 180.854 88.246 179.895 87.3759 178.002C86.5057 176.108 86.9687 174.007 88.4056 173.376C89.8426 172.745 91.7185 173.72 92.5807 175.613Z" fill="#FF8B6A"/>
<path d="M89.1324 174.838C90.729 174.631 91.6071 177.387 90.8407 178.321C90.8407 178.321 90.7529 177.019 90.0424 177.371C89.3319 177.722 90.1302 178.377 90.1302 178.377" stroke="#381905" stroke-width="0.9" stroke-linecap="round" stroke-linejoin="round"/>
<path d="M108.084 179.807C108.291 179.576 108.507 179.288 108.81 179.36C109.113 179.432 109.241 179.767 109.505 179.703C109.768 179.639 109.896 179.28 110.303 179.416C110.71 179.552 111.149 179.839 111.572 179.743C111.628 179.743 111.7 179.743 111.732 179.743C111.742 179.762 111.747 179.782 111.747 179.803C111.747 179.824 111.742 179.845 111.732 179.863C110.997 181.085 109.409 182.036 107.98 181.461C107.426 181.262 106.962 180.87 106.671 180.358C106.667 180.335 106.667 180.31 106.671 180.287C106.671 180.239 106.758 180.239 106.814 180.287C107.203 180.344 107.598 180.246 107.916 180.015C107.979 179.952 108.035 179.882 108.084 179.807V179.807Z" fill="#381905"/>
<path d="M89.3478 172.769C90.0668 172.866 90.7435 173.165 91.299 173.632C91.8545 174.098 92.2659 174.714 92.4851 175.406C93.02 177.203 92.2376 179.4 93.3792 180.862L94.9758 168.24" fill="#381905"/>
<path d="M103.414 172.194C103.536 172.371 103.606 172.579 103.613 172.793C103.669 173.72 102.344 174.591 101.961 173.48C101.681 172.682 102.679 171.188 103.414 172.194Z" fill="#381905"/>
<path d="M113.528 172.474C113.65 172.653 113.719 172.864 113.727 173.081C113.783 174.007 112.458 174.878 112.075 173.76C111.828 172.969 112.825 171.475 113.528 172.474Z" fill="#381905"/>
<path d="M282.023 198.844L284.785 177.459C281.439 176.284 277.793 176.284 274.447 177.459L278.295 198.844" fill="#CCDADB"/>
<path d="M280.155 219.296L291.921 156.776C299.874 156.834 307.679 158.93 314.593 162.863L289.766 224.864" fill="#CCDADB"/>
<path d="M246.898 248.814C246.15 248.356 245.318 248.051 244.451 247.917C243.584 247.783 242.7 247.822 241.848 248.033C240.997 248.243 240.195 248.62 239.49 249.142C238.785 249.664 238.191 250.321 237.741 251.075L224.418 276.128L218.311 287.615L224.49 292.409C224.913 291.873 228.481 287.352 232.896 281.472C238.58 273.915 245.668 264.121 249.237 257.73C250.074 256.229 250.299 254.462 249.862 252.8C249.426 251.138 248.364 249.709 246.898 248.814V248.814Z" fill="#E87578"/>
<path d="M220.115 285.73C219.604 285.841 219.145 286.123 218.814 286.529C217.92 287.232 217.026 288.925 215.788 290.627C214.463 292.488 212.843 294.733 212.835 295.053C212.763 298.743 215.501 296.65 217.154 295.995C217.259 299.654 217.724 303.293 218.543 306.86C219.077 307.499 220.299 307.163 220.786 307.195C221.273 307.227 220.961 308.058 222.127 308.074C222.756 307.942 223.366 307.727 223.939 307.435C224.103 307.299 224.234 307.126 224.319 306.93C224.405 306.735 224.445 306.522 224.434 306.309C224.346 305.965 225.711 306.237 226.382 305.614C226.406 305.577 226.432 305.542 226.462 305.51C227.012 304.831 226.462 303.672 226.533 303.249C226.605 302.826 227.883 303.249 228.617 301.563C229.373 298.967 229.491 296.226 228.96 293.575C227.188 283.549 224.721 284.931 220.115 285.73Z" fill="#E87578"/>
<path d="M218.814 286.529C218.814 286.529 213.17 293.583 212.635 295.404C212.1 297.226 213.913 298.416 217.154 295.995C217.154 295.995 217.545 301.516 217.872 303.465" stroke="#381905" stroke-width="0.96" stroke-linecap="round" stroke-linejoin="round"/>
<path d="M234.213 235.76C234.549 237.845 234.844 239.978 235.083 242.191C235.514 246.321 235.722 250.236 235.762 253.895L220.714 282.167C223.532 283.836 226.35 285.482 229.208 287.04C230.405 285.442 231.77 283.685 233.199 281.727C235.993 278.013 239.266 273.571 242.276 269.241C245.15 265.127 249.924 257.058 251.696 253.887C252.103 253.16 252.582 245.483 252.35 235.76H234.213Z" fill="#0054C8"/>
<path d="M237.877 275.472C238.939 273.875 252.813 257.937 253.164 247.735C253.444 239.635 245.309 204.261 245.309 204.261" stroke="#381905" stroke-width="0.96" stroke-linecap="round" stroke-linejoin="round"/>
<path d="M326.719 161.394L314.641 176.181L326.008 185.48L338.086 170.7C337.36 168.177 335.884 165.935 333.853 164.273C331.822 162.61 329.334 161.606 326.719 161.394V161.394Z" fill="#381905"/>
<path d="M327.389 183.825L209.754 327.806L198.386 318.5L316.022 174.519C318.637 174.731 321.125 175.735 323.156 177.398C325.187 179.06 326.663 181.302 327.389 183.825V183.825Z" fill="#F3BA20"/>
<path d="M198.386 318.5L189.924 340.069L190.283 340.365L209.753 327.782C209.097 325.221 207.64 322.937 205.595 321.263C203.55 319.589 201.024 318.612 198.386 318.476V318.5Z" fill="#FF8C65"/>
<path d="M189.924 340.093L190.283 340.389L196.071 336.65C195.738 335.906 195.237 335.249 194.606 334.734C193.976 334.218 193.233 333.856 192.439 333.678L189.924 340.093Z" fill="#381905"/>
<path d="M236.025 263.745C236.025 263.745 234.269 340.988 240.089 352.42C245.908 363.852 260.094 356.974 259.782 350.343C259.471 343.712 270.871 269.577 270.871 269.577L236.025 263.745Z" fill="#E87578"/>
<path d="M259.215 426.028C259.702 424.814 259.75 417.592 260.189 412.935C265.274 359.346 260.054 350.295 260.054 350.295C258.904 343.672 252.414 339.526 246.483 340.98C241.134 342.282 237.574 343.337 238.5 349.273C238.46 349.329 248.079 405.937 248.279 417.281C248.43 425.773 246.826 426.42 246.395 426.444C247.409 426.508 258.752 427.187 259.215 426.028Z" fill="#E87578"/>
<path d="M271.349 269.241L235.61 263.258V263.753C235.61 264.36 234.277 324.931 238.005 346.349C237.846 347.344 237.846 348.357 238.005 349.352V349.352C238.005 349.712 238.172 350.559 238.54 352.772C244.535 389.2 247.64 410.914 247.752 417.305C247.752 417.96 247.752 418.559 247.752 419.118C250.284 419.456 252.839 419.586 255.391 419.509C256.998 419.438 258.598 419.262 260.181 418.982C260.285 416.897 260.389 414.772 260.556 412.991C265.418 361.703 260.916 351.174 260.405 350.167C260.349 349.848 260.269 349.512 260.173 349.145C260.764 337.745 271.126 270.344 271.229 269.657L271.349 269.241Z" fill="#3C3E55"/>
<path d="M261.211 424.279C260.7 422.777 260.022 421.323 259.407 421.754C258.377 422.481 257.619 423.6 256.597 424.367C254.306 426.1 250.706 425.277 248.431 423.879C246.962 422.977 245.708 424.071 244.503 424.822C243.298 425.573 241.901 426.42 240.583 427.163C238.915 428.129 237.247 429.08 235.562 430.015C235.562 430.015 232.904 431.045 232.521 431.612C232.198 432.502 232.064 433.449 232.129 434.392C234.119 435.641 236.365 436.422 238.699 436.677C242.829 436.895 246.965 436.39 250.921 435.183C252.518 434.576 254.114 434.073 255.751 433.546C257.699 432.915 261.259 432.587 262.001 430.35C262.6 428.401 261.778 426.108 261.211 424.279Z" fill="#381905"/>
<path d="M238.755 268.538C238.755 268.538 254.17 344.24 262.377 354.066C270.583 363.892 282.893 354.066 281.112 347.675C279.332 341.284 274.024 266.493 274.024 266.493L238.755 268.538Z" fill="#E87578"/>
<path d="M297.35 421.626C297.557 420.332 296.009 413.278 295.402 408.645C288.473 355.256 281.376 347.595 281.376 347.595C278.789 341.387 271.541 338.807 266.065 341.531C261.139 343.984 257.898 345.805 260.086 351.397C260.086 351.461 281.983 404.514 284.705 415.539C286.732 423.783 285.311 424.774 284.904 424.886C285.958 424.718 297.134 422.856 297.35 421.626Z" fill="#E87578"/>
<path d="M270.886 266.621L271.461 267.579C273.273 271.749 274.612 276.109 275.453 280.577C276.993 301.3 279.867 338.375 281.256 346.42C281.432 346.756 281.583 347.067 281.711 347.371C282.43 348.226 289.159 357.492 295.793 408.588C296.033 410.458 296.424 412.679 296.807 414.836C292.874 416.155 288.824 417.096 284.713 417.648C284.585 417.032 284.433 416.369 284.258 415.634C282.725 409.427 274.886 388.944 260.956 354.752C260.11 352.675 259.79 351.884 259.686 351.557C259.298 350.628 259.058 349.644 258.976 348.641C250.594 328.581 238.452 269.233 238.332 268.634L238.228 268.154L270.886 266.621Z" fill="#3C3E55"/>
<path d="M298.866 419.485C298.068 418.135 297.062 416.865 296.551 417.424C295.705 418.359 295.218 419.621 294.396 420.62C292.544 422.817 288.808 422.817 286.325 421.954C284.729 421.403 283.715 422.753 282.701 423.751C281.687 424.75 280.514 425.868 279.396 426.907C277.991 428.217 276.57 429.519 275.133 430.797C275.133 430.797 272.738 432.395 272.523 433.026C272.401 433.967 272.483 434.924 272.762 435.83C274.976 436.619 277.34 436.892 279.675 436.629C283.749 435.922 287.668 434.511 291.259 432.459C292.672 431.508 294.148 430.662 295.601 429.791C297.366 428.736 300.758 427.626 300.99 425.253C301.181 423.184 299.872 421.131 298.866 419.485Z" fill="#381905"/>
<path d="M271.35 286.529C271.35 286.529 264.764 197.854 266.52 195.457C268.276 193.061 279.955 188.795 283.188 188.962C286.421 189.13 291.171 209.461 291.171 209.461C291.171 209.461 302.267 210.013 304.175 217.218C306.083 224.424 308.294 279.73 300.982 283.525C295.075 286.529 271.35 286.529 271.35 286.529Z" fill="#F14052"/>
<path d="M240.911 222.515C242.919 214.75 245.781 207.232 249.444 200.099C251.027 196.84 253.176 193.889 255.791 191.383C259.623 187.98 264.572 186.438 269.226 188.986C281.631 195.689 288.018 245.339 283.14 276.575C282.618 280.735 280.961 284.671 278.35 287.951C271.701 296.011 260.365 296.659 255.033 296.962C247.712 297.378 239.546 297.841 233.91 293.231C228.857 289.093 228.777 282.487 229.519 276.503C230.765 266.437 233.511 256.579 235.107 246.561C236.321 238.988 238.556 231.223 240.544 223.753C240.695 223.322 240.807 222.907 240.911 222.515Z" fill="#0054C8"/>
<path d="M246.642 151.423C246.515 151.751 234.9 152.694 240.695 165.092C242.356 168.647 253.667 157.103 252.286 156.696C250.905 156.288 246.642 151.423 246.642 151.423Z" fill="#381905"/>
<path d="M254.538 189.194C255.014 189.541 255.51 189.861 256.022 190.153C256.744 190.599 257.577 190.831 258.425 190.821C259.273 190.811 260.101 190.56 260.812 190.097C261.1 189.906 261.349 189.662 261.547 189.378C261.685 183.786 261.815 178.194 261.938 172.602L254.841 175.19L254.538 189.194Z" fill="#E87578"/>
<path d="M254.569 187.557L254.865 175.166L261.307 173.081C260.413 177.738 258.074 184.417 254.569 187.557Z" fill="#381905"/>
<path d="M262.385 170.668C262.044 171.979 261.623 173.268 261.124 174.527C260.813 175.025 260.568 175.562 260.397 176.125C259.583 177.881 258.379 179.428 256.877 180.648C255.374 181.868 253.613 182.728 251.728 183.163C249.587 183.639 247.35 183.42 245.341 182.539C244.352 182.042 243.445 181.395 242.651 180.622C239.697 177.69 237.119 170.461 239.027 162.959C239.785 159.947 241.925 151.511 249.133 149.913C254.969 148.627 261.227 152.454 263.263 157.151C264.828 160.858 263.79 165.004 262.385 170.668Z" fill="#E87578"/>
<path d="M239.793 167.601C239.793 168.192 240.072 168.679 240.448 168.695C240.823 168.711 241.158 168.24 241.174 167.64C241.19 167.041 240.903 166.554 240.519 166.546C240.136 166.538 239.817 166.985 239.793 167.601Z" fill="#381905"/>
<path d="M249.668 169.646C249.668 170.237 249.939 170.732 250.314 170.74C250.69 170.748 251.025 170.285 251.041 169.694C251.057 169.102 250.769 168.607 250.386 168.591C250.003 168.575 249.684 169.055 249.668 169.646Z" fill="#381905"/>
<path d="M265.913 169.022C263.782 169.422 261.622 169.647 259.455 169.693C259.432 169.695 259.409 169.691 259.389 169.681C259.368 169.671 259.35 169.657 259.337 169.639C259.323 169.62 259.315 169.599 259.311 169.576C259.308 169.554 259.311 169.531 259.319 169.51C259.583 168.765 259.686 167.972 259.621 167.185C259.556 166.397 259.325 165.632 258.944 164.94C258.305 163.933 257.691 164.141 257.196 163.23C256.086 161.137 258.521 158.861 257.714 157.319C257.267 156.48 256.118 156.6 252.126 156.232C246.195 155.697 244.535 155.034 243.792 154.699C243.449 154.539 239.386 152.709 239.609 151.359C240.096 148.427 261.618 144.209 267.23 153.98C270.575 159.795 266.583 167.72 265.913 169.022Z" fill="#381905"/>
<path d="M244.016 166.897C244.016 166.897 243.88 169.126 243.944 169.965C243.984 170.588 241.996 170.333 241.916 170.628C241.837 170.924 242.962 171.539 243.888 171.986" stroke="#381905" stroke-width="0.96" stroke-linecap="round" stroke-linejoin="round"/>
<path d="M260.413 169.957C259.615 171.922 260.245 173.991 261.738 174.567C263.231 175.142 265.059 174.023 265.817 172.058C266.576 170.093 265.993 168.064 264.5 167.449C263.007 166.834 261.163 167.992 260.413 169.957Z" fill="#E87578"/>
<path d="M241.094 162.991C241.142 163.319 240.025 163.79 239.578 163.894C239.131 163.998 237.981 164.341 237.821 164.038C237.662 163.734 238.348 163.031 239.154 162.751C239.961 162.472 241.046 162.671 241.094 162.991Z" fill="#381905"/>
<path d="M248.646 164.685C248.55 164.956 249.588 165.723 251.041 166.282C252.494 166.842 253.771 166.914 253.875 166.65C253.979 166.386 253.021 165.364 251.584 164.829C250.147 164.293 248.742 164.421 248.646 164.685Z" fill="#381905"/>
<path d="M242.85 175.973C242.85 175.973 248.063 175.901 248.287 176.22C248.51 176.54 246.962 178.17 245.964 178.17C244.303 178.17 241.701 176.26 242.85 175.973Z" fill="#381905"/>
<path d="M264.005 169.47C263.56 169.699 263.169 170.021 262.861 170.416C262.552 170.81 262.332 171.267 262.217 171.755C262.296 171.658 262.403 171.588 262.523 171.555C262.643 171.522 262.771 171.528 262.888 171.571C263.003 171.623 263.099 171.709 263.163 171.818C263.227 171.926 263.256 172.052 263.247 172.178" stroke="#381905" stroke-width="0.96" stroke-linecap="round" stroke-linejoin="round"/>
<path d="M289.103 262.507C289.103 262.507 245.198 227.819 246.603 207.113C248.008 186.406 275.197 181.029 281.288 199.3" stroke="#F14052" stroke-width="7.05" stroke-miterlimit="10"/>
<path d="M235.355 243.014C235.128 242.166 234.736 241.371 234.201 240.676C233.665 239.98 232.997 239.398 232.236 238.963C231.474 238.528 230.633 238.248 229.763 238.139C228.892 238.031 228.009 238.097 227.164 238.333L200.246 247.248L187.92 251.338L189.07 259.079C189.74 258.992 195.456 258.185 202.697 256.978C212.021 255.437 223.899 253.24 230.892 251.083C232.535 250.577 233.917 249.453 234.749 247.949C235.581 246.444 235.798 244.675 235.355 243.014V243.014Z" fill="#E87578"/>
<path d="M190.507 251.226C190.059 250.961 189.538 250.849 189.022 250.907C187.888 250.803 186.092 251.386 184.001 251.786C181.757 252.217 179.035 252.72 178.812 252.944C176.209 255.572 179.658 255.924 181.278 256.611C178.838 259.322 176.667 262.265 174.796 265.398C174.74 266.197 175.858 266.828 176.193 267.196C176.529 267.563 175.714 267.939 176.553 268.754C177.1 269.097 177.691 269.365 178.309 269.553C178.522 269.568 178.736 269.532 178.933 269.449C179.13 269.366 179.304 269.237 179.442 269.073C179.618 268.77 180.408 269.872 181.326 269.92H181.454C182.324 269.816 182.747 268.618 183.051 268.322C183.354 268.027 184.016 269.265 185.717 268.538C188.053 267.183 190.027 265.284 191.473 263.002C197.132 254.534 194.386 253.831 190.507 251.226Z" fill="#E87578"/>
<path d="M189.022 250.907C189.022 250.907 180.073 252.113 178.421 253.056C176.768 253.998 177.271 256.123 181.279 256.611C181.279 256.611 177.766 260.877 176.657 262.506" stroke="#381905" stroke-width="0.96" stroke-linecap="round" stroke-linejoin="round"/>
<path d="M193.397 249.07L223.787 238.996C226.286 236.32 228.841 233.348 231.371 230.065C236.847 222.933 241.532 215.227 245.341 207.081C249.293 201.753 257.755 191.032 264.069 193.82C265.586 194.499 266.855 194.547 268.013 195.505C274.399 200.866 267.214 213.927 257.962 225.926C248.383 238.373 236.536 249.669 235.355 250.028C231.882 251.099 222.869 253.639 217.944 254.638C212.779 255.684 207.351 256.643 202.776 257.402C200.382 257.801 198.146 258.153 196.199 258.457C195.193 255.349 194.291 252.217 193.397 249.07Z" fill="#0054C8"/>
<path d="M267.127 194.826C267.127 194.826 259.503 183.218 247.968 204.556C236.432 225.894 223.748 238.996 223.748 238.996L193.357 249.069" stroke="#381905" stroke-width="0.96" stroke-linecap="round" stroke-linejoin="round"/>
<path d="M210.432 256.076C212.3 255.66 233.335 253.679 240.631 246.569C246.427 240.897 264.931 209.685 264.931 209.685" stroke="#381905" stroke-width="0.96" stroke-linecap="round" stroke-linejoin="round"/>
<path d="M242.643 300.078C242.643 300.573 260.692 353.291 260.692 353.291" stroke="#381905" stroke-width="0.96" stroke-linecap="round" stroke-linejoin="round"/>
<path d="M251.384 305.43C252.938 306.507 254.772 307.108 256.661 307.16C258.55 307.213 260.414 306.714 262.025 305.726" stroke="#381905" stroke-width="0.96" stroke-linecap="round" stroke-linejoin="round"/>
<path d="M231.938 290.747C230.247 288.64 229.296 286.035 229.232 283.333C229.173 280.652 229.412 277.973 229.942 275.344C230.842 269.875 231.741 264.405 232.64 258.936" stroke="#381905" stroke-width="0.96" stroke-linecap="round" stroke-linejoin="round"/>
<path d="M252.334 264.272C250.433 264.563 248.712 265.565 247.52 267.075C246.327 268.585 245.752 270.492 245.908 272.411C246.065 274.329 246.944 276.117 248.366 277.413C249.788 278.709 251.648 279.417 253.572 279.395" stroke="#381905" stroke-width="0.96" stroke-linecap="round" stroke-linejoin="round"/>
<path d="M286.956 195.082C286.956 195.082 297.334 223.953 294.819 250.06" stroke="#381905" stroke-width="0.96" stroke-linecap="round" stroke-linejoin="round"/>
<path d="M289.598 253.048H300.902C300.902 253.048 301.405 264.639 298.667 266.485C295.929 268.33 290.468 268.019 289.598 266.621C288.728 265.223 289.598 253.048 289.598 253.048Z" stroke="#381905" stroke-width="0.96" stroke-linecap="round" stroke-linejoin="round"/>
</svg>
