<svg width="300" height="328" viewBox="0 0 300 328" fill="none" xmlns="http://www.w3.org/2000/svg">
<ellipse cx="63.5" cy="301" rx="63.5" ry="27" fill="white" fill-opacity="0.53"/>
<ellipse cx="225.5" cy="296" rx="63.5" ry="27" fill="white" fill-opacity="0.53"/>
<path d="M69.0597 150.274C69.0597 150.274 55.5846 204.262 48.4 213.289C41.2154 222.317 28.5466 219.513 30.0394 213.713C31.5322 207.913 34.7253 146.919 34.7253 146.919L69.0597 150.274Z" fill="#FF8C65"/>
<path d="M48.9828 208.56C51.3777 210.957 38.0063 272.15 37.711 282.935C37.4396 291.763 39.4033 291.211 39.4033 291.211C39.4033 291.211 28.1475 291.843 27.7164 290.74C27.2853 289.638 26.9181 283.151 26.9181 278.933C26.9181 274.715 24.5951 240.882 26.2635 230.497C27.932 220.112 31.0533 209.391 34.2464 205.556C37.0085 202.161 48.5757 202.952 48.9828 208.56Z" fill="#FF8C65"/>
<path d="M25.952 289.142C26.423 287.792 27.0457 286.482 27.5965 286.882C28.5225 287.537 29.1931 288.559 30.1031 289.278C32.3224 290.988 36.0104 290.405 36.8965 287.553C36.9369 287.371 37.0099 287.197 37.1121 287.041C37.1653 286.966 37.241 286.909 37.3284 286.878C37.4158 286.848 37.5106 286.847 37.599 286.874C37.7372 286.977 37.8381 287.123 37.8864 287.289C38.4772 288.591 40.401 289.43 41.5426 290.157C43.9853 291.699 46.5079 293.121 49.0226 294.543C49.0226 294.543 51.4174 295.493 51.7527 296.005C52.0402 296.811 52.1544 297.668 52.088 298.521C50.2798 299.625 48.2478 300.31 46.1407 300.526C42.4174 300.684 38.695 300.192 35.1403 299.072C33.7114 298.513 32.2505 298.05 30.7976 297.562C29.0414 296.971 25.8402 296.652 25.2096 294.607C24.6269 292.809 25.3852 290.78 25.952 289.142Z" fill="#381905"/>
<path d="M58.1309 173.353C62.9207 191.168 69.4826 216.013 69.762 219.784C70.2011 225.743 83.1094 224.401 87.0689 213.569C89.2243 207.673 88.9529 188.564 88.2504 172.363L58.1309 173.353Z" fill="#FF8C65"/>
<path d="M86.8696 206.363C88.8893 207.577 88.7775 215.286 88.985 217.22C89.8392 224.873 90.414 232.558 91.0047 240.227C91.6274 248.328 92.2101 256.428 92.8967 264.521C93.5912 272.741 93.9185 281.002 94.589 289.166C94.7327 290.916 94.4054 292.921 92.9925 293.959C92.0929 294.522 91.0287 294.762 89.9749 294.638C88.9822 294.627 88.0249 294.268 87.2687 293.624C86.3667 292.737 86.1831 291.363 86.0074 290.109C85.3209 285.228 83.6764 280.674 82.2156 276.001C81.1698 272.645 80.1081 269.298 79.0623 265.951C76.5158 257.739 73.9693 249.502 71.9735 241.13C71.3084 238.567 70.8176 235.962 70.5047 233.333C69.4749 222.852 69.7703 211.707 71.8698 207.194C73.7298 203.199 85.0894 201.026 86.8696 206.363Z" fill="#FF8C65"/>
<path d="M83.74 291.107C83.8437 289.677 84.1231 288.255 84.7538 288.495C85.8155 288.903 86.7255 289.717 87.7873 290.165C90.1821 291.163 93.1358 289.653 94.8202 287.928C95.8979 286.809 97.2151 287.497 98.4604 287.888C99.7057 288.279 101.087 288.687 102.404 289.062C104.07 289.542 105.741 290.002 107.417 290.444C107.417 290.444 109.972 290.756 110.427 291.163C110.909 291.869 111.236 292.67 111.385 293.512C109.922 295.043 108.131 296.223 106.148 296.963C102.585 298.065 98.8565 298.535 95.1315 298.353C93.6148 298.177 92.0821 298.098 90.5573 297.994C88.7053 297.874 85.5281 298.377 84.3706 296.556C83.3967 295.022 83.6043 292.809 83.74 291.107Z" fill="#381905"/>
<path d="M50.0524 50.4706C46.0501 51.0782 42.3511 52.9641 39.5071 55.8471C43.1526 58.2688 45.9452 61.776 47.49 65.8729C49.4058 58.5073 54.0838 49.7756 50.0524 50.4706Z" fill="#CCDADB"/>
<path d="M133.801 107.598C132.26 107.295 104.791 104.347 91.4196 101.695C87.8992 101 84.8098 104.347 84.5703 107.934C84.5131 108.814 84.6305 109.697 84.9158 110.531C85.2012 111.365 85.6489 112.135 86.2329 112.795C86.817 113.455 87.526 113.993 88.3189 114.378C89.1119 114.762 89.9731 114.986 90.8529 115.036L132.364 115.34L133.801 107.598Z" fill="#FF8C65"/>
<path d="M70.7441 56.0073C76.0926 55.7517 79.2937 62.2784 81.3773 66.2728C87.7077 78.4476 91.2202 92.0045 96.88 104.515C97.2634 105.36 97.4666 106.276 97.4766 107.204C97.4866 108.132 97.3033 109.052 96.9382 109.905C96.5732 110.758 96.0345 111.525 95.3565 112.159C94.6785 112.792 93.876 113.277 93.0004 113.582C91.4074 114.09 89.6839 114 88.1528 113.328C86.6216 112.656 85.3878 111.448 84.6822 109.931C81.4891 103.333 78.1123 96.7898 74.967 90.1511C73.3305 86.7 71.7739 83.2329 70.2891 79.7099C68.3971 75.1643 66.7527 70.5787 66.4892 65.6177C66.3375 62.7977 66.6409 56.207 70.7441 56.0073Z" fill="#FF8C65"/>
<path d="M67.4233 51.8687C80.3875 53.5782 83.5407 60.6563 98.4128 101.646C98.4128 101.646 108.91 102.445 109.796 103.476C110.682 104.506 109.477 116.098 108.511 116.785C107.545 117.472 91.6992 117.744 88.075 115.747C84.4508 113.749 74.1688 85.0459 74.1688 85.0459" fill="#CCDADB"/>
<path d="M96.4172 103.029C95.253 104.913 93.9424 106.703 92.4976 108.381C94.0245 107.571 95.3672 106.453 96.4411 105.098" stroke="#381905" stroke-width="0.9" stroke-linecap="round" stroke-linejoin="round"/>
<path d="M138.766 125.11C140.618 125.645 141.161 124.375 141.52 124.582C141.88 124.79 142.454 125.996 143.372 126.004H143.5C144.458 125.892 145.161 124.638 145.376 124.934C145.539 125.085 145.735 125.196 145.949 125.257C146.162 125.318 146.387 125.328 146.606 125.285C147.227 125.031 147.812 124.695 148.346 124.287C149.144 123.36 148.282 123.025 148.553 122.689C148.825 122.353 149.95 121.547 149.815 120.708C147.596 117.81 145.102 115.134 142.367 112.719C143.963 112.176 145.049 111.217 145.153 110.043C145.328 108.046 142.43 108.445 138.918 108.173C137.417 108.054 136.06 107.854 134.974 107.798C133.761 107.431 132.699 107.447 131.925 108.086C128.173 111.169 125.395 112.2 132.172 120.157C133.938 122.317 136.201 124.016 138.766 125.11V125.11Z" fill="#FF8B6A"/>
<path d="M148.537 123.009L144.178 118.191" stroke="#381905" stroke-width="1.39" stroke-miterlimit="10"/>
<path d="M145.376 124.942L141.161 119.557" stroke="#381905" stroke-width="1.39" stroke-miterlimit="10"/>
<path d="M141.52 124.583L138.974 121.083" stroke="#381905" stroke-width="1.39" stroke-miterlimit="10"/>
<path d="M78.4397 69.5319L82.9979 143.667C83.5327 149.196 75.5419 154.388 64.7969 155.427C62.0907 155.666 59.3686 155.666 56.6623 155.427C46.0291 154.54 37.2161 144.778 39.6828 134.392C43.1553 119.829 23.8687 51.1099 53.8763 49.8956C54.1238 49.8796 78.0964 45.5178 78.4397 69.5319Z" fill="#CCDADB"/>
<path d="M41.9737 189.586C50.4356 190.721 72.141 189.187 89.2643 185.416C89.6921 185.32 90.0706 185.072 90.3302 184.718C90.5898 184.364 90.713 183.928 90.6773 183.491C87.9471 147.781 84.8418 145.497 82.0158 122.657C75.6295 123.791 46.8912 122.657 43.243 122.569C31.9712 133.274 29.1692 142.373 28.778 148.82C28.2911 156.809 31.3246 164.166 30.2788 179.976C30.1192 182.333 29.9036 184.386 29.7041 186.007C29.6453 186.465 29.764 186.928 30.0357 187.301C30.3074 187.674 30.7114 187.929 31.1649 188.013C34.7412 188.7 38.3575 189.107 41.9737 189.586Z" fill="#3C3E55"/>
<path d="M29.3289 110.267C29.3003 111.981 29.895 113.646 31.0023 114.954C32.1095 116.262 33.6539 117.123 35.3479 117.377C36.2897 117.512 37.2492 117.451 38.1662 117.197C39.0832 116.943 39.9378 116.502 40.6763 115.902C41.4148 115.302 42.0212 114.555 42.4574 113.709C42.8937 112.863 43.1503 111.936 43.2111 110.986C43.4825 104.722 46.5719 77.8323 46.4042 70.6504C46.0769 50.9023 29.2331 48.0663 29.3289 110.267Z" fill="#FF8B6A"/>
<path d="M45.4542 156.657C45.4542 155.059 45.4542 126.012 43.3308 112.719C43.0416 110.953 42.0957 109.363 40.6831 108.266C39.2706 107.17 37.4958 106.649 35.7151 106.807V106.807C34.8187 106.889 33.948 107.151 33.1558 107.578C32.3635 108.006 31.6662 108.59 31.1058 109.295C30.5454 110 30.1337 110.811 29.8955 111.68C29.6573 112.548 29.5976 113.456 29.72 114.349L37.3516 156.521L45.4542 156.657Z" fill="#FF8B6A"/>
<path d="M39.4833 55.8472C31.4206 64.1714 28.8022 81.6108 28.8421 110.266C28.8516 111.08 28.9834 111.888 29.2333 112.663C29.1654 113.242 29.1654 113.826 29.2333 114.405L32.0353 135.279C36.6548 135.458 41.2801 135.134 45.8297 134.313C45.5343 129.975 44.289 115.771 43.7861 112.615C43.741 112.323 43.6743 112.035 43.5865 111.752C43.6319 111.488 43.6613 111.221 43.6743 110.953C43.7781 108.557 44.297 103.132 44.9037 96.8454C45.8776 86.6198 46.9872 75.0281 46.9074 70.5864C46.9277 68.9667 47.153 67.3561 47.5779 65.7931C45.9869 61.7114 43.1556 58.2326 39.4833 55.8472V55.8472Z" fill="#CCDADB"/>
<path d="M42.7399 169.695C44.2806 170.861 45.2864 169.887 45.502 170.19C45.7175 170.494 45.8772 171.844 46.7313 172.179L46.8511 172.235C47.7851 172.459 48.8867 171.548 48.9825 171.9C49.0778 172.104 49.2201 172.283 49.3977 172.422C49.5752 172.561 49.7831 172.655 50.0043 172.699C50.6779 172.678 51.346 172.571 51.9921 172.379C53.0458 171.796 52.3752 171.181 52.7903 170.941C53.2055 170.701 54.5067 170.366 54.6743 169.535C53.6239 166.03 52.2363 162.635 50.5312 159.397C52.2076 159.461 53.5647 158.958 54.0836 157.895C54.9617 156.098 52.1118 155.427 48.9266 153.901C47.5616 153.254 46.3721 152.583 45.3743 152.144C44.9881 151.774 44.5153 151.507 43.9993 151.367C43.4832 151.227 42.9404 151.22 42.4206 151.345C37.8145 152.886 34.8528 152.855 38.3573 162.713C39.2312 165.361 40.7352 167.757 42.7399 169.695V169.695Z" fill="#FF8B6A"/>
<path d="M52.6228 171.228L50.2679 165.173" stroke="#381905" stroke-width="1.39" stroke-miterlimit="10"/>
<path d="M48.9829 171.899L46.9632 165.373" stroke="#381905" stroke-width="1.39" stroke-miterlimit="10"/>
<path d="M45.5021 170.19L44.3765 166.012" stroke="#381905" stroke-width="1.39" stroke-miterlimit="10"/>
<path d="M39.6666 58.2998C45.0231 59.578 46.8512 66.5122 46.4041 72.8792C45.9571 79.2463 44.0093 114.021 44.0093 114.021L45.8693 134.329" stroke="#381905" stroke-width="0.9" stroke-linecap="round" stroke-linejoin="round"/>
<path d="M74.975 62.6777C74.7624 65.7813 75.2359 68.8936 76.3618 71.7932C77.4877 74.6928 79.2383 77.3084 81.489 79.4541C83.3411 81.1956 85.5842 82.7055 86.5661 85.0462C87.6039 87.5387 86.9413 90.4705 85.5044 92.7553C84.0675 95.0401 81.96 96.7896 79.8765 98.4992L81.8243 120.229" stroke="#381905" stroke-width="0.8" stroke-linecap="round" stroke-linejoin="round"/>
<path d="M71.4785 15.9995C71.4785 15.9995 78.24 19.6743 76.404 26.9361C76.404 26.9361 72.7478 30.4192 69.6265 25.0987C66.5052 19.7782 71.4785 15.9995 71.4785 15.9995Z" fill="#381905"/>
<path d="M58.562 15.0969C58.562 15.0969 66.9281 -0.353315 49.4616 0.00617755C31.995 0.365671 38.8683 25.4503 53.7564 23.2454" fill="#381905"/>
<path d="M64.4934 55.256C65.8425 58.3237 65.9623 68.733 65.9623 68.733C65.9623 68.733 51.2898 57.4849 51.2578 55.4478C51.2259 53.4106 54.1716 51.709 57.8277 51.6611C61.4839 51.6132 63.6712 53.3867 64.4934 55.256Z" fill="#FF8B6A"/>
<path d="M60.4941 53.2431L53.565 53.8182L52.1919 37.2896L59.3526 39.4225L60.4941 53.2431Z" fill="#FF8B6A"/>
<path d="M60.3663 51.6213L60.3024 39.3106L52.8704 37.7129C54.0359 42.2904 56.7261 48.7373 60.3663 51.6213Z" fill="#381905"/>
<path d="M52.1757 38.0885C52.1757 38.0885 52.8383 39.183 53.9719 40.7168C57.1012 44.9588 63.5035 49.5044 69.6662 46.8841C78.0642 43.2812 77.4256 22.119 73.7854 18.3164C65.3315 9.54478 47.5058 17.0222 52.1757 38.0885Z" fill="#FF8B6A"/>
<path d="M48.3762 37.002C50.9547 37.8008 52.4395 37.2336 53.1659 36.8662C53.2574 36.8271 53.3433 36.776 53.4214 36.7144C54.4991 35.8356 52.0643 31.6815 53.7806 29.9719C54.4432 29.3168 55.0978 29.7881 56.1755 29.2609C58.7619 27.9667 57.1654 23.7566 59.2808 20.9047C62.0589 17.1579 68.4452 19.4507 69.5628 16.5987C70.1934 15.001 68.7645 12.6044 67.0721 11.422C62.6336 8.41029 54.6747 12.7881 50.4917 16.4629C48.48 18.2205 41.8382 24.1081 43.5625 30.6989C44.3608 33.9742 46.9473 36.0513 48.3762 37.002Z" fill="#381905"/>
<path d="M67.8781 14.6013C67.7783 14.3532 67.7323 14.0867 67.7434 13.8195C67.7544 13.5523 67.8221 13.2905 67.9419 13.0515C69.5385 11.5656 78.9982 19.5064 76.4038 26.9359C76.5953 21.6953 75.1744 19.4105 73.7614 18.316C71.7098 16.7263 68.5646 16.7662 67.8781 14.6013Z" fill="#381905"/>
<path d="M69.5705 30.627C69.5705 30.627 69.2272 33.4789 69.8179 33.6467C70.4087 33.8145 71.662 33.2073 71.7578 33.4869C71.8536 33.7665 71.0713 34.7811 70.0734 35.0048" stroke="#381905" stroke-width="0.9" stroke-linecap="round" stroke-linejoin="round"/>
<path d="M64.4215 27.9668C64.5094 28.1905 63.6233 28.3982 62.5536 28.8056C61.4839 29.2131 60.6935 29.6445 60.6057 29.4288C60.5179 29.2131 61.1246 28.2145 62.2023 27.831C62.5556 27.6724 62.9421 27.6019 63.3286 27.6256C63.7151 27.6492 64.0902 27.7663 64.4215 27.9668V27.9668Z" fill="#381905"/>
<path d="M73.0431 28.7815C72.9952 29.0132 73.9132 29.0771 75.0229 29.2928C76.1325 29.5085 77.0026 29.8201 77.0425 29.5884C77.0824 29.3567 76.3321 28.478 75.2304 28.2543C74.8506 28.1562 74.4524 28.1529 74.071 28.2449C73.6896 28.3368 73.3367 28.5211 73.0431 28.7815V28.7815Z" fill="#381905"/>
<path d="M53.5807 34.613C54.4508 36.5064 53.9878 38.6074 52.5509 39.2305C51.114 39.8536 49.246 38.895 48.3759 37.0017C47.5057 35.1083 47.9687 33.0073 49.4056 32.3762C50.8426 31.7451 52.7185 32.7197 53.5807 34.613Z" fill="#FF8B6A"/>
<path d="M50.1324 33.8383C51.729 33.6306 52.6071 36.3867 51.8407 37.3214C51.8407 37.3214 51.7529 36.0192 51.0424 36.3707C50.3319 36.7222 51.1302 37.3773 51.1302 37.3773" stroke="#381905" stroke-width="0.9" stroke-linecap="round" stroke-linejoin="round"/>
<path d="M69.0836 38.8072C69.2912 38.5756 69.5067 38.288 69.8101 38.3599C70.1134 38.4318 70.2412 38.7673 70.5046 38.7034C70.768 38.6395 70.8958 38.28 71.3029 38.4158C71.71 38.5516 72.1491 38.8392 72.5722 38.7433C72.628 38.7433 72.6999 38.7433 72.7318 38.7433C72.7416 38.7618 72.7467 38.7824 72.7467 38.8032C72.7467 38.8241 72.7416 38.8447 72.7318 38.8632C71.9974 40.0854 70.4088 41.0361 68.9799 40.4609C68.426 40.2615 67.9617 39.8705 67.6707 39.3585C67.6669 39.3346 67.6669 39.3104 67.6707 39.2866C67.6707 39.2386 67.7585 39.2386 67.8144 39.2866C68.2029 39.3438 68.5985 39.2463 68.916 39.0149C68.9789 38.9516 69.035 38.882 69.0836 38.8072V38.8072Z" fill="#381905"/>
<path d="M50.3478 31.7694C51.0668 31.8657 51.7435 32.1648 52.299 32.6316C52.8545 33.0984 53.2659 33.7137 53.4851 34.4056C54.02 36.2031 53.2376 38.4 54.3792 39.8619L55.9758 27.2397" fill="#381905"/>
<path d="M64.4136 31.1943C64.5363 31.3707 64.6055 31.5787 64.6132 31.7934C64.669 32.7201 63.3439 33.5909 62.9607 32.4805C62.6813 31.6816 63.6792 30.1877 64.4136 31.1943Z" fill="#381905"/>
<path d="M74.5279 31.4737C74.6496 31.6535 74.7187 31.8638 74.7275 32.0808C74.7833 33.0075 73.4582 33.8783 73.075 32.7598C72.8275 31.969 73.8254 30.4751 74.5279 31.4737Z" fill="#381905"/>
<path d="M243.023 57.8445L245.785 36.4586C242.439 35.284 238.793 35.284 235.447 36.4586L239.295 57.8445" fill="#CCDADB"/>
<path d="M241.155 78.2957L252.921 15.7759C260.874 15.8339 268.679 17.9296 275.593 21.8633L250.766 83.8639" fill="#CCDADB"/>
<path d="M207.898 107.814C207.15 107.356 206.318 107.051 205.451 106.917C204.584 106.783 203.7 106.822 202.848 107.033C201.997 107.243 201.195 107.62 200.49 108.142C199.785 108.664 199.191 109.321 198.741 110.075L185.418 135.128L179.311 146.615L185.49 151.409C185.913 150.873 189.481 146.352 193.896 140.472C199.58 132.915 206.668 123.121 210.237 116.73C211.074 115.229 211.299 113.462 210.862 111.8C210.426 110.138 209.364 108.709 207.898 107.814V107.814Z" fill="#E87578"/>
<path d="M181.115 144.73C180.604 144.841 180.145 145.123 179.814 145.529C178.92 146.232 178.026 147.925 176.788 149.627C175.463 151.488 173.843 153.733 173.835 154.053C173.763 157.743 176.501 155.65 178.154 154.995C178.259 158.654 178.724 162.293 179.543 165.86C180.077 166.499 181.299 166.163 181.786 166.195C182.273 166.227 181.961 167.058 183.127 167.074C183.756 166.942 184.366 166.727 184.939 166.435C185.103 166.299 185.234 166.126 185.319 165.93C185.405 165.735 185.445 165.522 185.434 165.309C185.346 164.965 186.711 165.237 187.382 164.614C187.406 164.577 187.432 164.542 187.462 164.51C188.012 163.831 187.462 162.672 187.533 162.249C187.605 161.826 188.883 162.249 189.617 160.563C190.373 157.967 190.491 155.226 189.96 152.575C188.188 142.549 185.721 143.931 181.115 144.73Z" fill="#E87578"/>
<path d="M179.814 145.529C179.814 145.529 174.17 152.583 173.635 154.404C173.1 156.226 174.913 157.416 178.154 154.995C178.154 154.995 178.545 160.516 178.872 162.465" stroke="#381905" stroke-width="0.96" stroke-linecap="round" stroke-linejoin="round"/>
<path d="M195.213 94.7603C195.549 96.8453 195.844 98.9783 196.083 101.191C196.514 105.321 196.722 109.236 196.762 112.895L181.714 141.167C184.532 142.836 187.35 144.482 190.208 146.04C191.405 144.442 192.77 142.685 194.199 140.727C196.993 137.013 200.266 132.571 203.276 128.241C206.15 124.127 210.924 116.058 212.696 112.887C213.103 112.16 213.582 104.483 213.35 94.7603H195.213Z" fill="#0054C8"/>
<path d="M198.877 134.472C199.939 132.875 213.813 116.937 214.164 106.735C214.444 98.6349 206.309 63.2607 206.309 63.2607" stroke="#381905" stroke-width="0.96" stroke-linecap="round" stroke-linejoin="round"/>
<path d="M287.719 20.3936L275.641 35.1807L287.008 44.4796L299.086 29.7004C298.36 27.1773 296.884 24.9353 294.853 23.2727C292.822 21.6101 290.334 20.6059 287.719 20.3936V20.3936Z" fill="#381905"/>
<path d="M288.389 42.8254L170.754 186.806L159.386 177.5L277.022 33.5186C279.637 33.7309 282.125 34.7351 284.156 36.3977C286.187 38.0603 287.663 40.3023 288.389 42.8254V42.8254Z" fill="#F3BA20"/>
<path d="M159.386 177.5L150.924 199.069L151.283 199.365L170.753 186.782C170.097 184.221 168.64 181.937 166.595 180.263C164.55 178.589 162.024 177.612 159.386 177.476V177.5Z" fill="#FF8C65"/>
<path d="M150.924 199.093L151.283 199.389L157.071 195.65C156.738 194.906 156.237 194.249 155.606 193.734C154.976 193.218 154.233 192.856 153.439 192.678L150.924 199.093Z" fill="#381905"/>
<path d="M197.025 122.745C197.025 122.745 195.269 199.988 201.089 211.42C206.908 222.852 221.094 215.974 220.782 209.343C220.471 202.712 231.871 128.577 231.871 128.577L197.025 122.745Z" fill="#E87578"/>
<path d="M220.215 285.028C220.702 283.814 220.75 276.592 221.189 271.935C226.274 218.346 221.054 209.295 221.054 209.295C219.904 202.672 213.414 198.526 207.483 199.98C202.134 201.282 198.574 202.337 199.5 208.273C199.46 208.329 209.079 264.937 209.279 276.281C209.43 284.773 207.826 285.42 207.395 285.444C208.409 285.508 219.752 286.187 220.215 285.028Z" fill="#E87578"/>
<path d="M232.349 128.241L196.61 122.258V122.753C196.61 123.36 195.277 183.931 199.005 205.349C198.846 206.344 198.846 207.357 199.005 208.352V208.352C199.005 208.712 199.172 209.559 199.54 211.772C205.535 248.2 208.64 269.914 208.752 276.305C208.752 276.96 208.752 277.559 208.752 278.118C211.284 278.456 213.839 278.586 216.391 278.509C217.998 278.438 219.598 278.262 221.181 277.982C221.285 275.897 221.389 273.772 221.556 271.991C226.418 220.703 221.916 210.174 221.405 209.167C221.349 208.848 221.269 208.512 221.173 208.145C221.764 196.745 232.126 129.344 232.229 128.657L232.349 128.241Z" fill="#3C3E55"/>
<path d="M222.211 283.279C221.7 281.777 221.022 280.323 220.407 280.754C219.377 281.481 218.619 282.6 217.597 283.367C215.306 285.1 211.706 284.277 209.431 282.879C207.962 281.977 206.708 283.071 205.503 283.822C204.298 284.573 202.901 285.42 201.583 286.163C199.915 287.129 198.247 288.08 196.562 289.015C196.562 289.015 193.904 290.045 193.521 290.612C193.198 291.502 193.064 292.449 193.129 293.392C195.119 294.641 197.365 295.422 199.699 295.677C203.829 295.895 207.965 295.39 211.921 294.183C213.518 293.576 215.114 293.073 216.751 292.546C218.699 291.915 222.259 291.587 223.001 289.35C223.6 287.401 222.778 285.108 222.211 283.279Z" fill="#381905"/>
<path d="M199.755 127.538C199.755 127.538 215.17 203.24 223.377 213.066C231.583 222.892 243.893 213.066 242.112 206.675C240.332 200.284 235.024 125.493 235.024 125.493L199.755 127.538Z" fill="#E87578"/>
<path d="M258.35 280.626C258.557 279.332 257.009 272.278 256.402 267.645C249.473 214.256 242.376 206.595 242.376 206.595C239.789 200.387 232.541 197.807 227.065 200.531C222.139 202.984 218.898 204.805 221.086 210.397C221.086 210.461 242.983 263.514 245.705 274.539C247.732 282.783 246.311 283.774 245.904 283.886C246.958 283.718 258.134 281.856 258.35 280.626Z" fill="#E87578"/>
<path d="M231.886 125.621L232.461 126.579C234.273 130.749 235.612 135.109 236.453 139.577C237.993 160.3 240.867 197.375 242.256 205.42C242.432 205.756 242.583 206.067 242.711 206.371C243.43 207.226 250.159 216.492 256.793 267.588C257.033 269.458 257.424 271.679 257.807 273.836C253.874 275.155 249.824 276.096 245.713 276.648C245.585 276.032 245.433 275.369 245.258 274.634C243.725 268.427 235.886 247.944 221.956 213.752C221.11 211.675 220.79 210.884 220.686 210.557C220.298 209.628 220.058 208.644 219.976 207.641C211.594 187.581 199.452 128.233 199.332 127.634L199.228 127.154L231.886 125.621Z" fill="#3C3E55"/>
<path d="M259.866 278.485C259.068 277.135 258.062 275.865 257.551 276.424C256.705 277.359 256.218 278.621 255.396 279.62C253.544 281.817 249.808 281.817 247.325 280.954C245.729 280.403 244.715 281.753 243.701 282.751C242.687 283.75 241.514 284.868 240.396 285.907C238.991 287.217 237.57 288.519 236.133 289.797C236.133 289.797 233.738 291.395 233.523 292.026C233.401 292.967 233.483 293.924 233.762 294.83C235.976 295.619 238.34 295.892 240.675 295.629C244.749 294.922 248.668 293.511 252.259 291.459C253.672 290.508 255.148 289.662 256.601 288.791C258.366 287.736 261.758 286.626 261.99 284.253C262.181 282.184 260.872 280.131 259.866 278.485Z" fill="#381905"/>
<path d="M232.35 145.529C232.35 145.529 225.764 56.8538 227.52 54.4572C229.276 52.0605 240.955 47.7946 244.188 47.9623C247.421 48.1301 252.171 68.4614 252.171 68.4614C252.171 68.4614 263.267 69.0126 265.175 76.2185C267.083 83.4243 269.294 138.73 261.982 142.525C256.075 145.529 232.35 145.529 232.35 145.529Z" fill="#F14052"/>
<path d="M201.911 81.5151C203.919 73.7504 206.781 66.2323 210.444 59.0987C212.027 55.8398 214.176 52.8885 216.791 50.383C220.623 46.9798 225.572 45.438 230.226 47.9864C242.631 54.6889 249.018 104.339 244.14 135.575C243.618 139.735 241.961 143.671 239.35 146.951C232.701 155.011 221.365 155.659 216.033 155.962C208.712 156.378 200.546 156.841 194.91 152.231C189.857 148.093 189.777 141.487 190.519 135.503C191.765 125.437 194.511 115.579 196.107 105.561C197.321 97.9879 199.556 90.2228 201.544 82.7534C201.695 82.322 201.807 81.9066 201.911 81.5151Z" fill="#0054C8"/>
<path d="M207.642 10.4233C207.515 10.7509 195.9 11.6935 201.695 24.0921C203.356 27.6471 214.667 16.1033 213.286 15.6959C211.905 15.2885 207.642 10.4233 207.642 10.4233Z" fill="#381905"/>
<path d="M215.538 48.1942C216.014 48.5409 216.51 48.8609 217.022 49.1528C217.744 49.5992 218.577 49.8309 219.425 49.821C220.273 49.8111 221.101 49.56 221.812 49.0969C222.1 48.9056 222.349 48.6617 222.547 48.3779C222.685 42.7858 222.815 37.1937 222.938 31.6016L215.841 34.1899L215.538 48.1942Z" fill="#E87578"/>
<path d="M215.569 46.5566L215.865 34.1661L222.307 32.0811C221.413 36.7385 219.074 43.4171 215.569 46.5566Z" fill="#381905"/>
<path d="M223.385 29.6682C223.044 30.9791 222.623 32.2678 222.124 33.5268C221.813 34.0253 221.568 34.5624 221.397 35.1245C220.583 36.8809 219.379 38.4281 217.877 39.6478C216.374 40.8676 214.613 41.7277 212.728 42.1626C210.587 42.6386 208.35 42.4203 206.341 41.5395C205.352 41.0416 204.445 40.395 203.651 39.6222C200.697 36.6903 198.119 29.4605 200.027 21.9591C200.785 18.9473 202.925 10.5112 210.133 8.91347C215.969 7.62728 222.227 11.4539 224.263 16.1513C225.828 19.858 224.79 24.0042 223.385 29.6682Z" fill="#E87578"/>
<path d="M200.793 26.6005C200.793 27.1917 201.072 27.679 201.448 27.695C201.823 27.7109 202.158 27.2396 202.174 26.6405C202.19 26.0413 201.903 25.554 201.519 25.546C201.136 25.538 200.817 25.9854 200.793 26.6005Z" fill="#381905"/>
<path d="M210.668 28.6457C210.668 29.2369 210.939 29.7322 211.314 29.7402C211.69 29.7482 212.025 29.2848 212.041 28.6937C212.057 28.1025 211.769 27.6072 211.386 27.5912C211.003 27.5752 210.684 28.0546 210.668 28.6457Z" fill="#381905"/>
<path d="M226.913 28.0223C224.782 28.4224 222.622 28.6468 220.455 28.6934C220.432 28.6948 220.409 28.6906 220.389 28.681C220.368 28.6715 220.35 28.6569 220.337 28.6386C220.323 28.6203 220.315 28.5989 220.311 28.5764C220.308 28.5538 220.311 28.5309 220.319 28.5096C220.583 27.7647 220.686 26.9722 220.621 26.1846C220.556 25.3969 220.325 24.632 219.944 23.9401C219.305 22.9335 218.691 23.1412 218.196 22.2305C217.086 20.1374 219.521 17.8606 218.714 16.3188C218.267 15.48 217.118 15.5998 213.126 15.2323C207.195 14.6971 205.535 14.034 204.792 13.6985C204.449 13.5387 200.386 11.7093 200.609 10.3592C201.096 7.42735 222.618 3.2093 228.23 12.9795C231.575 18.7953 227.583 26.7201 226.913 28.0223Z" fill="#381905"/>
<path d="M205.016 25.8975C205.016 25.8975 204.88 28.1263 204.944 28.9651C204.984 29.5883 202.996 29.3326 202.916 29.6282C202.837 29.9238 203.962 30.5389 204.888 30.9863" stroke="#381905" stroke-width="0.96" stroke-linecap="round" stroke-linejoin="round"/>
<path d="M221.413 28.9571C220.615 30.9223 221.245 32.9914 222.738 33.5666C224.231 34.1418 226.059 33.0234 226.817 31.0582C227.576 29.0929 226.993 27.0638 225.5 26.4487C224.007 25.8335 222.163 26.9919 221.413 28.9571Z" fill="#E87578"/>
<path d="M202.094 21.991C202.142 22.3185 201.025 22.7899 200.578 22.8937C200.131 22.9976 198.981 23.3411 198.821 23.0375C198.662 22.7339 199.348 22.0309 200.154 21.7513C200.961 21.4717 202.046 21.6714 202.094 21.991Z" fill="#381905"/>
<path d="M209.646 23.6847C209.55 23.9564 210.588 24.7233 212.041 25.2825C213.494 25.8417 214.771 25.9136 214.875 25.65C214.979 25.3863 214.021 24.3638 212.584 23.8285C211.147 23.2933 209.742 23.4211 209.646 23.6847Z" fill="#381905"/>
<path d="M203.85 34.9727C203.85 34.9727 209.063 34.9008 209.287 35.2204C209.51 35.5399 207.962 37.1696 206.964 37.1696C205.303 37.1696 202.701 35.2603 203.85 34.9727Z" fill="#381905"/>
<path d="M225.005 28.4697C224.56 28.6987 224.169 29.0215 223.861 29.4159C223.552 29.8103 223.332 30.267 223.217 30.7545C223.296 30.6578 223.403 30.5882 223.523 30.5552C223.643 30.5223 223.771 30.5277 223.888 30.5708C224.003 30.6229 224.099 30.7091 224.163 30.8177C224.227 30.9263 224.256 31.052 224.247 31.1779" stroke="#381905" stroke-width="0.96" stroke-linecap="round" stroke-linejoin="round"/>
<path d="M250.103 121.507C250.103 121.507 206.198 86.8195 207.603 66.1127C209.008 45.4059 236.197 40.0294 242.288 58.2997" stroke="#F14052" stroke-width="7.05" stroke-miterlimit="10"/>
<path d="M196.355 102.014C196.128 101.166 195.736 100.371 195.201 99.6759C194.665 98.9805 193.997 98.3983 193.236 97.9629C192.474 97.5275 191.633 97.2476 190.763 97.1395C189.892 97.0313 189.009 97.097 188.164 97.3327L161.246 106.248L148.92 110.338L150.07 118.079C150.74 117.992 156.456 117.185 163.697 115.978C173.021 114.437 184.899 112.24 191.892 110.083C193.535 109.577 194.917 108.453 195.749 106.949C196.581 105.444 196.798 103.675 196.355 102.014V102.014Z" fill="#E87578"/>
<path d="M151.507 110.226C151.059 109.961 150.538 109.849 150.022 109.907C148.888 109.803 147.092 110.386 145.001 110.786C142.757 111.217 140.035 111.72 139.812 111.944C137.209 114.572 140.658 114.924 142.278 115.611C139.838 118.322 137.667 121.265 135.796 124.398C135.74 125.197 136.858 125.828 137.193 126.196C137.529 126.563 136.714 126.939 137.553 127.754C138.1 128.097 138.691 128.365 139.309 128.553C139.522 128.568 139.736 128.532 139.933 128.449C140.13 128.366 140.304 128.237 140.442 128.073C140.618 127.77 141.408 128.872 142.326 128.92H142.454C143.324 128.816 143.747 127.618 144.051 127.322C144.354 127.027 145.016 128.265 146.717 127.538C149.053 126.183 151.027 124.284 152.473 122.002C158.132 113.534 155.386 112.831 151.507 110.226Z" fill="#E87578"/>
<path d="M150.022 109.907C150.022 109.907 141.073 111.113 139.421 112.056C137.768 112.998 138.271 115.123 142.279 115.611C142.279 115.611 138.766 119.877 137.657 121.506" stroke="#381905" stroke-width="0.96" stroke-linecap="round" stroke-linejoin="round"/>
<path d="M154.397 108.07L184.787 97.996C187.286 95.3198 189.841 92.348 192.371 89.0646C197.847 81.9334 202.532 74.2268 206.341 66.081C210.293 60.7525 218.755 50.0317 225.069 52.8197C226.586 53.4988 227.855 53.5467 229.013 54.5053C235.399 59.8658 228.214 72.9274 218.962 84.9264C209.383 97.3729 197.536 108.669 196.355 109.028C192.882 110.099 183.869 112.639 178.944 113.638C173.779 114.684 168.351 115.643 163.776 116.402C161.382 116.801 159.146 117.153 157.199 117.457C156.193 114.349 155.291 111.217 154.397 108.07Z" fill="#0054C8"/>
<path d="M228.127 53.8259C228.127 53.8259 220.503 42.2183 208.968 63.5562C197.432 84.8941 184.748 97.9957 184.748 97.9957L154.357 108.069" stroke="#381905" stroke-width="0.96" stroke-linecap="round" stroke-linejoin="round"/>
<path d="M171.432 115.076C173.3 114.66 194.335 112.679 201.631 105.569C207.427 99.897 225.931 68.6851 225.931 68.6851" stroke="#381905" stroke-width="0.96" stroke-linecap="round" stroke-linejoin="round"/>
<path d="M203.643 159.078C203.643 159.573 221.692 212.291 221.692 212.291" stroke="#381905" stroke-width="0.96" stroke-linecap="round" stroke-linejoin="round"/>
<path d="M212.384 164.43C213.938 165.507 215.772 166.108 217.661 166.16C219.55 166.213 221.414 165.714 223.025 164.726" stroke="#381905" stroke-width="0.96" stroke-linecap="round" stroke-linejoin="round"/>
<path d="M192.938 149.747C191.247 147.64 190.296 145.035 190.232 142.333C190.173 139.652 190.412 136.973 190.942 134.344C191.842 128.875 192.741 123.405 193.64 117.936" stroke="#381905" stroke-width="0.96" stroke-linecap="round" stroke-linejoin="round"/>
<path d="M213.334 123.272C211.433 123.563 209.712 124.565 208.52 126.075C207.327 127.585 206.752 129.492 206.908 131.411C207.065 133.329 207.944 135.117 209.366 136.413C210.788 137.709 212.648 138.417 214.572 138.395" stroke="#381905" stroke-width="0.96" stroke-linecap="round" stroke-linejoin="round"/>
<path d="M247.956 54.0815C247.956 54.0815 258.334 82.9528 255.819 109.06" stroke="#381905" stroke-width="0.96" stroke-linecap="round" stroke-linejoin="round"/>
<path d="M250.598 112.048H261.902C261.902 112.048 262.405 123.639 259.667 125.485C256.929 127.33 251.468 127.019 250.598 125.621C249.728 124.223 250.598 112.048 250.598 112.048Z" stroke="#381905" stroke-width="0.96" stroke-linecap="round" stroke-linejoin="round"/>
</svg>
